<svg xmlns="http://www.w3.org/2000/svg"
 width="20pt" height="22pt" viewBox="0 0 55 81" fill="none">

<path fill="currentColor" d="M1440 1611 c0 -5 -10 -13 -22 -17 -33 -10 -46 -27 -53 -70 -14 -84
-17 -94 -31 -94 -8 0 -14 -9 -14 -20 0 -15 -9 -22 -30 -27 -17 -3 -29 -11 -27
-17 12 -38 113 8 124 57 6 29 36 52 53 42 6 -3 10 -19 10 -35 0 -16 7 -35 15
-44 21 -21 19 -43 -7 -57 -13 -7 -30 -20 -39 -31 -9 -10 -23 -18 -30 -18 -14
0 -66 -48 -58 -53 36 -23 91 -37 144 -37 l65 0 0 -52 c0 -151 72 -230 208
-227 l57 2 -65 7 c-139 14 -190 81 -190 250 0 61 5 83 25 118 23 41 22 55 -4
30 -10 -11 -11 -9 -5 5 5 14 13 17 31 12 14 -3 22 -2 19 3 -3 5 17 7 43 5 34
-2 53 2 61 12 20 24 7 27 -40 10 -24 -8 -45 -13 -48 -10 -6 6 -10 4 55 38 53
27 116 36 128 17 12 -19 26 -10 19 12 -6 21 -5 21 10 9 21 -18 18 -70 -6 -85
-14 -8 -23 -5 -48 19 l-30 29 0 -207 c0 -177 -2 -207 -15 -207 -12 0 -15 14
-17 63 l-2 62 -3 -57 c-4 -61 -2 -60 -52 -31 -2 2 4 12 13 22 10 11 16 29 13
43 -4 22 -4 21 -6 -3 0 -15 -8 -32 -16 -39 -12 -10 -13 -6 -10 27 4 35 4 35
-4 8 l-9 -30 -2 30 c-2 26 -3 27 -7 7 -7 -37 14 -75 53 -94 46 -24 131 -24
156 -1 17 15 20 15 28 3 8 -13 10 -12 10 3 0 21 -23 22 -40 2 -7 -8 -28 -15
-46 -15 l-34 0 0 130 0 130 28 10 c60 22 148 75 179 108 68 72 25 132 -94 132
-60 0 -122 -13 -132 -28 -3 -5 -26 -21 -50 -37 -32 -19 -42 -23 -38 -11 4 9 2
16 -3 16 -6 0 -10 9 -10 19 0 20 18 31 51 31 10 0 19 5 19 10 0 6 6 10 14 10
8 0 18 5 22 12 5 8 2 9 -10 5 -46 -18 -66 -19 -66 -4 0 8 6 18 13 20 9 4 9 6
-1 6 -7 1 -10 6 -7 11 3 6 0 10 -9 10 -8 0 -16 -4 -18 -8 -1 -5 -22 -12 -45
-15 -36 -6 -43 -4 -48 13 -6 20 -45 29 -45 10 0 -5 5 -10 10 -10 6 0 10 -5 10
-11 0 -8 -5 -7 -16 2 -13 10 -17 10 -23 0 -7 -10 -13 -10 -30 -2 -25 14 -26
29 -5 59 14 21 14 22 -5 22 -12 0 -21 -4 -21 -9z"/>
<path fill-opacity="0.2" fill="#FFF" d="M1703 1323 c-9 -3 -13 -30 -12 -91 1 -48 4 -73 6 -57 7 55 17 61 23
15 l7 -45 1 59 c2 48 -1 57 -13 52 -8 -3 -15 -1 -15 5 0 5 7 12 15 15 8 4 15
17 15 30 0 24 -4 27 -27 17z"/>
<path fill-opacity="0.2" fill="#FFF" d="M1613 1313 c-17 -6 -16 -82 2 -158 14 -58 14 -59 9 -11 -4 35 -2 51
8 57 22 14 27 11 31 -23 3 -25 4 -22 5 15 2 46 1 47 -28 47 -20 0 -30 5 -30
15 0 10 10 15 30 15 25 0 30 4 30 25 0 19 -5 25 -22 24 -13 0 -29 -3 -35 -6z"/>
<path d="M1835 948 l-30 -31 33 22 c17 12 32 27 32 32 0 12 0 12 -35 -23z"/>  
</svg>
